<?xml version="1.0" standalone="no"?>
<!DOCTYPE svg PUBLIC "-//W3C//DTD SVG 20010904//EN"
 "http://www.w3.org/TR/2001/REC-SVG-20010904/DTD/svg10.dtd">
<svg version="1.0" xmlns="http://www.w3.org/2000/svg"
 width="453.000000pt" height="455.000000pt" viewBox="0 0 453.000000 455.000000"
 preserveAspectRatio="xMidYMid meet">

<g transform="translate(0.000000,455.000000) scale(0.100000,-0.100000)"
fill="#000000" stroke="none">
<path d="M1750 3994 c-129 -74 -252 -146 -272 -159 -21 -14 -40 -25 -42 -25
-3 0 -29 -14 -58 -31 -29 -18 -69 -40 -88 -51 -161 -89 -340 -194 -340 -201 0
-5 4 -6 9 -3 5 4 11 2 13 -2 1 -5 32 -25 68 -46 36 -20 72 -41 80 -46 8 -6 43
-25 77 -44 l61 -34 99 60 c54 33 175 106 268 163 94 56 217 132 275 167 l105
65 3 161 c2 126 0 162 -10 162 -7 -1 -119 -62 -248 -136z"/>
<path d="M2550 3967 l0 -162 157 -95 c87 -52 166 -99 175 -105 10 -5 108 -65
218 -132 l201 -123 37 24 c20 12 68 40 106 61 39 21 85 49 104 62 19 12 41 23
48 23 8 0 14 3 13 8 0 5 -506 297 -887 512 -15 9 -55 32 -90 53 -35 20 -67 37
-73 37 -5 0 -9 -67 -9 -163z m710 -557 c0 -5 -2 -10 -4 -10 -3 0 -8 5 -11 10
-3 6 -1 10 4 10 6 0 11 -4 11 -10z"/>
<path d="M2265 3580 c-42 -28 -149 -60 -202 -60 -24 0 -64 5 -88 11 l-43 11
-43 -47 c-57 -62 -147 -131 -204 -156 -25 -11 -77 -23 -115 -26 -55 -5 -70 -9
-70 -22 0 -9 9 -70 20 -136 25 -150 26 -309 4 -366 -33 -81 4 -321 74 -488 50
-119 119 -219 227 -327 128 -130 290 -235 445 -289 42 -14 94 1 219 63 253
127 438 328 537 583 61 157 92 381 63 456 -32 84 -27 283 11 437 11 43 20 80
20 81 0 1 -29 5 -63 9 -121 12 -228 70 -336 179 -41 43 -44 44 -79 35 -20 -6
-71 -8 -112 -6 -63 4 -87 11 -145 41 -38 20 -74 37 -80 37 -5 0 -23 -9 -40
-20z m143 -66 c60 -26 137 -36 200 -24 l58 10 65 -63 c84 -83 188 -136 285
-145 81 -8 78 2 46 -149 -24 -112 -29 -262 -10 -328 27 -100 16 -270 -29 -410
-45 -141 -130 -285 -237 -402 -97 -107 -278 -223 -424 -272 l-62 -21 -63 26
c-284 118 -486 305 -603 560 -76 163 -112 394 -79 494 27 81 14 291 -30 478
-5 21 -3 22 63 22 98 0 186 44 288 144 l76 75 57 -15 c73 -18 139 -7 236 40
l70 35 30 -20 c17 -11 45 -27 63 -35z"/>
<path d="M2337 3223 c-4 -3 -7 -18 -6 -32 0 -23 1 -23 8 -6 7 18 8 18 18 1 10
-18 10 -17 18 0 7 17 9 17 15 -6 8 -23 8 -23 9 8 1 35 -12 42 -28 15 -9 -16
-10 -16 -11 5 0 22 -10 28 -23 15z"/>
<path d="M2231 3190 c1 -19 3 -27 6 -17 5 20 14 22 30 6 7 -7 11 -3 11 15 0
27 -13 35 -21 14 -4 -10 -8 -9 -16 2 -8 12 -10 7 -10 -20z"/>
<path d="M2426 3194 c-11 -28 -7 -42 14 -47 21 -5 41 18 39 45 0 7 -5 3 -11
-9 -15 -31 -37 -30 -30 2 5 28 -3 34 -12 9z"/>
<path d="M2160 3171 c0 -27 2 -28 24 -18 19 9 22 15 15 29 -16 29 -39 22 -39
-11z m25 9 c3 -5 1 -10 -4 -10 -6 0 -11 5 -11 10 0 6 2 10 4 10 3 0 8 -4 11
-10z"/>
<path d="M2090 3165 c0 -8 9 -15 20 -15 23 0 27 -16 5 -23 -11 -4 -10 -4 2 -3
28 2 29 36 1 36 -18 0 -20 2 -8 10 13 8 12 10 -2 10 -10 0 -18 -7 -18 -15z"/>
<path d="M2501 3163 c-15 -29 -14 -31 7 -29 9 0 16 -5 15 -11 -4 -20 11 -15
24 7 7 10 9 22 4 25 -5 3 -11 -1 -14 -7 -3 -8 -9 -3 -14 12 l-10 24 -12 -21z"/>
<path d="M2035 3113 c8 -33 16 -42 22 -25 3 6 11 12 19 12 23 0 16 16 -11 28
-36 17 -38 16 -30 -15z"/>
<path d="M2568 3108 c-14 -12 -13 -15 4 -31 18 -17 19 -16 28 8 6 15 10 28 10
31 0 9 -27 3 -42 -8z m22 -8 c0 -5 -5 -10 -11 -10 -5 0 -7 5 -4 10 3 6 8 10
11 10 2 0 4 -4 4 -10z"/>
<path d="M1980 3085 c-11 -13 -10 -19 5 -35 17 -19 20 -19 34 -5 12 11 13 20
5 32 -15 24 -29 26 -44 8z m31 -18 c-1 -12 -15 -9 -19 4 -3 6 1 10 8 8 6 -3
11 -8 11 -12z"/>
<path d="M2619 3060 c-13 -10 -19 -19 -12 -20 6 0 15 5 18 10 4 6 11 8 16 5 5
-4 9 1 9 9 0 20 -3 20 -31 -4z"/>
<path d="M2303 3010 c0 -36 2 -50 4 -32 2 17 2 47 0 65 -2 17 -4 3 -4 -33z"/>
<path d="M2626 3033 c-5 -11 0 -13 16 -7 21 6 22 5 8 -11 -14 -17 -14 -17 8
-6 29 15 28 28 -2 33 -16 3 -27 0 -30 -9z"/>
<path d="M2160 3026 c0 -7 52 -96 56 -96 2 0 -7 23 -21 50 -22 43 -35 60 -35
46z"/>
<path d="M2282 3010 c0 -14 2 -19 5 -12 2 6 2 18 0 25 -3 6 -5 1 -5 -13z"/>
<path d="M2438 3008 c-21 -32 -49 -88 -45 -88 7 0 68 102 64 107 -2 2 -11 -7
-19 -19z"/>
<path d="M1925 3000 c5 -15 2 -20 -12 -20 -17 -1 -17 -2 1 -15 25 -19 37 -19
30 0 -4 9 0 15 10 15 24 0 19 15 -10 29 -23 10 -25 10 -19 -9z"/>
<path d="M2664 2984 c-17 -14 -17 -15 -1 -10 10 3 25 6 33 6 8 0 14 5 14 10 0
15 -24 12 -46 -6z"/>
<path d="M2668 2959 c-9 -6 -5 -9 12 -10 14 0 19 -3 13 -6 -7 -2 -13 -9 -13
-14 0 -5 11 -3 25 3 14 6 25 14 25 18 0 12 -47 18 -62 9z"/>
<path d="M2166 2952 c-3 -5 1 -9 9 -9 8 0 12 4 9 9 -3 4 -7 8 -9 8 -2 0 -6 -4
-9 -8z"/>
<path d="M2441 2936 c-8 -10 -9 -16 -1 -21 5 -3 10 -5 11 -3 4 18 7 38 4 38
-1 0 -8 -6 -14 -14z"/>
<path d="M1880 2915 c0 -18 16 -20 24 -2 3 6 4 3 3 -7 -1 -10 4 -21 12 -24 9
-3 11 0 7 7 -4 7 -2 18 4 26 11 13 7 15 -19 15 -21 0 -31 -5 -31 -15z"/>
<path d="M2050 2922 c0 -4 21 -18 48 -30 29 -14 39 -16 27 -6 -30 24 -75 46
-75 36z"/>
<path d="M2149 2928 c-6 -20 -6 -39 0 -42 4 -3 7 6 7 20 0 20 -4 32 -7 22z"/>
<path d="M2502 2891 c-64 -39 -95 -63 -54 -42 12 7 28 9 34 5 6 -4 8 -3 5 4
-4 5 13 22 38 36 25 15 45 29 45 31 0 8 -2 7 -68 -34z"/>
<path d="M2687 2899 c6 -8 12 -22 14 -31 4 -16 6 -16 29 2 29 22 27 25 -20 35
-29 6 -33 5 -23 -6z"/>
<path d="M2090 2870 c8 -5 20 -10 25 -10 6 0 3 5 -5 10 -8 5 -19 10 -25 10 -5
0 -3 -5 5 -10z"/>
<path d="M2314 2854 c-18 -14 -18 -15 4 -4 12 6 22 13 22 15 0 8 -5 6 -26 -11z"/>
<path d="M1911 2853 c-1 -7 -13 -13 -28 -14 -28 0 -28 0 -5 -11 26 -13 48 1
39 24 -4 9 -6 10 -6 1z"/>
<path d="M2315 2830 c-3 -6 1 -7 9 -4 18 7 21 14 7 14 -6 0 -13 -4 -16 -10z"/>
<path d="M2713 2833 c-18 -7 -16 -40 2 -47 25 -9 45 4 45 30 0 24 -17 30 -47
17z m37 -23 c0 -5 -9 -10 -20 -10 -11 0 -20 5 -20 10 0 6 9 10 20 10 11 0 20
-4 20 -10z"/>
<path d="M2290 2811 c0 -19 -3 -21 -15 -11 -16 14 -35 6 -35 -16 0 -20 -18
-18 -23 4 -4 14 -5 14 -6 1 0 -9 5 -22 13 -28 11 -10 16 -8 21 9 5 16 12 19
28 14 12 -3 24 -9 27 -11 9 -8 -43 -44 -57 -39 -7 3 -13 1 -13 -4 0 -16 32
-11 52 7 18 16 19 15 34 -5 8 -12 22 -22 31 -22 11 0 8 6 -11 21 -16 13 -26
30 -26 47 0 15 -5 34 -10 42 -8 12 -10 10 -10 -9z"/>
<path d="M2355 2820 c4 -7 -2 -18 -15 -27 -18 -13 -20 -17 -8 -24 8 -4 28 -4
44 1 l29 8 -30 2 c-28 1 -29 2 -7 10 27 12 28 16 1 31 -16 8 -20 8 -14 -1z"/>
<path d="M2088 2813 c7 -3 16 -2 19 1 4 3 -2 6 -13 5 -11 0 -14 -3 -6 -6z"/>
<path d="M1854 2785 c-4 -9 0 -23 8 -31 20 -20 50 -7 46 20 -4 26 -45 35 -54
11z m44 -13 c2 -7 -6 -12 -17 -12 -21 0 -27 11 -14 24 9 9 26 2 31 -12z"/>
<path d="M2518 2793 c6 -2 18 -2 25 0 6 3 1 5 -13 5 -14 0 -19 -2 -12 -5z"/>
<path d="M2048 2773 c23 -2 61 -2 85 0 23 2 4 4 -43 4 -47 0 -66 -2 -42 -4z"/>
<path d="M2488 2773 c23 -2 59 -2 80 0 20 2 1 4 -43 4 -44 0 -61 -2 -37 -4z"/>
<path d="M2063 2753 c9 -2 25 -2 35 0 9 3 1 5 -18 5 -19 0 -27 -2 -17 -5z"/>
<path d="M2508 2753 c7 -3 16 -2 19 1 4 3 -2 6 -13 5 -11 0 -14 -3 -6 -6z"/>
<path d="M2723 2753 c9 -2 23 -2 30 0 6 3 -1 5 -18 5 -16 0 -22 -2 -12 -5z"/>
<path d="M1876 2711 c-15 -6 -16 -10 -7 -16 11 -6 11 -9 0 -16 -10 -6 -4 -9
19 -9 17 0 32 5 32 10 0 6 -5 10 -11 10 -6 0 -9 7 -5 15 6 16 1 17 -28 6z"/>
<path d="M2723 2712 c-21 -7 -21 -7 5 -26 20 -15 24 -16 20 -4 -4 9 -1 21 5
27 12 12 4 13 -30 3z"/>
<path d="M2117 2674 c-27 -14 -47 -28 -44 -31 5 -5 97 45 97 53 0 6 0 6 -53
-22z"/>
<path d="M2505 2690 c-3 -6 1 -7 9 -4 18 7 21 14 7 14 -6 0 -13 -4 -16 -10z"/>
<path d="M2080 2680 c-8 -5 -10 -10 -5 -10 6 0 17 5 25 10 8 5 11 10 5 10 -5
0 -17 -5 -25 -10z"/>
<path d="M2475 2675 c11 -9 29 -21 40 -26 l20 -10 -20 16 c-11 9 -29 21 -40
26 l-20 10 20 -16z"/>
<path d="M2202 2646 c-31 -30 -42 -56 -23 -56 17 0 33 -59 27 -95 -6 -31 -10
-35 -38 -35 -30 0 -31 1 -25 39 5 37 3 40 -21 43 -20 2 -28 12 -38 43 l-14 40
5 -55 c3 -30 5 -72 5 -92 l0 -38 100 0 101 0 -3 118 c-3 109 -4 117 -23 118
-11 1 -35 -13 -53 -30z"/>
<path d="M2330 2555 l0 -115 99 0 98 0 7 76 c4 41 11 86 16 99 7 18 6 23 -4
19 -7 -3 -17 -24 -22 -47 -7 -35 -13 -43 -35 -45 -23 -3 -26 -7 -25 -40 1 -31
-3 -38 -21 -40 -33 -5 -49 40 -33 91 6 20 15 37 20 37 19 0 10 33 -16 56 -14
14 -37 24 -55 24 l-29 0 0 -115z"/>
<path d="M2690 2660 c0 -5 8 -14 18 -20 16 -11 16 -11 0 -6 -10 3 -20 1 -23
-4 -4 -6 7 -10 24 -10 35 0 39 10 13 33 -21 19 -32 22 -32 7z"/>
<path d="M1924 2638 c6 -20 -10 -25 -17 -5 -3 6 -6 3 -6 -7 -1 -20 -1 -20 -16
0 -14 18 -14 18 -8 -3 5 -24 28 -29 52 -14 10 7 11 12 1 27 -10 16 -11 16 -6
2z"/>
<path d="M2304 2555 c0 -49 1 -71 3 -48 2 23 2 64 0 90 -2 26 -3 8 -3 -42z"/>
<path d="M2670 2585 c7 -8 10 -16 6 -16 -3 -1 -10 -2 -15 -3 -22 -3 -19 -14 5
-25 23 -10 26 -10 20 5 -4 11 1 18 15 21 21 6 21 6 -2 19 -32 18 -44 17 -29
-1z"/>
<path d="M1930 2568 c0 -19 -2 -20 -11 -8 -8 12 -10 12 -7 -4 5 -30 28 -32 28
-3 0 14 6 28 13 30 7 3 5 6 -5 6 -12 1 -18 -6 -18 -21z"/>
<path d="M1790 2491 c0 -3 9 -35 20 -71 26 -85 25 -97 -6 -104 l-27 -7 24 -26
c42 -45 175 -138 250 -176 107 -54 185 -71 294 -64 104 6 180 30 275 86 71 43
204 150 204 166 1 6 -10 12 -24 13 -14 2 -29 7 -33 11 -6 6 41 141 61 176 3 5
-30 -27 -74 -72 -97 -98 -213 -176 -303 -204 -67 -20 -189 -27 -248 -13 -106
25 -231 104 -335 212 -43 44 -78 77 -78 73z m167 -225 c-3 -8 3 -12 17 -12 16
1 22 -6 24 -26 3 -29 16 -37 26 -15 5 10 7 10 12 0 3 -7 12 -13 19 -13 16 0
79 -32 83 -42 2 -4 10 -4 18 -1 8 3 21 -1 30 -8 10 -8 48 -13 110 -13 l94 -1
0 -27 c0 -21 -5 -28 -20 -28 -11 0 -20 6 -20 13 0 8 -3 8 -9 -2 -7 -11 -24
-13 -71 -8 -34 3 -67 10 -72 15 -6 6 -17 8 -26 5 -8 -4 -20 0 -26 8 -6 8 -22
15 -36 17 -14 1 -26 7 -28 12 -2 6 -12 10 -23 10 -11 0 -22 7 -25 15 -4 8 -11
12 -17 8 -5 -3 -15 0 -21 8 -6 8 -20 19 -31 26 -11 6 -19 16 -18 22 2 6 -3 8
-10 6 -6 -3 -19 -1 -27 4 -12 8 -12 13 -1 35 12 21 17 23 33 15 11 -6 17 -16
15 -23z m753 -31 c0 -3 -5 -5 -10 -5 -6 0 -23 -11 -38 -25 -15 -14 -31 -25
-35 -25 -5 0 -15 -7 -24 -16 -9 -8 -21 -13 -28 -10 -8 3 -16 -2 -19 -10 -3 -8
-15 -14 -26 -14 -11 0 -20 -4 -20 -9 0 -19 -40 -19 -51 0 -13 25 -4 39 27 39
13 0 24 5 24 10 0 6 9 10 19 10 10 0 21 7 25 15 3 8 15 15 26 15 11 0 20 5 20
10 0 6 8 14 17 17 9 4 25 15 36 26 19 19 19 19 38 -2 10 -11 19 -23 19 -26z
m-270 -125 c0 -5 -7 -10 -15 -10 -8 0 -15 5 -15 10 0 6 7 10 15 10 8 0 15 -4
15 -10z"/>
<path d="M1965 2230 c-3 -5 -1 -10 4 -10 6 0 11 5 11 10 0 6 -2 10 -4 10 -3 0
-8 -4 -11 -10z"/>
<path d="M2620 2210 c0 -5 5 -10 10 -10 6 0 10 5 10 10 0 6 -4 10 -10 10 -5 0
-10 -4 -10 -10z"/>
<path d="M2570 2180 c0 -5 5 -10 11 -10 5 0 7 5 4 10 -3 6 -8 10 -11 10 -2 0
-4 -4 -4 -10z"/>
<path d="M2525 2150 c3 -5 8 -10 11 -10 2 0 4 5 4 10 0 6 -5 10 -11 10 -5 0
-7 -4 -4 -10z"/>
<path d="M2182 2355 c-7 -9 -8 -15 -2 -15 5 0 10 -11 10 -25 0 -14 5 -25 10
-25 6 0 10 18 10 40 0 42 -7 48 -28 25z"/>
<path d="M2247 2363 c-15 -15 -7 -43 13 -43 11 0 20 -5 20 -11 0 -6 -9 -9 -20
-6 -11 3 -20 1 -20 -4 0 -13 36 -11 48 4 16 19 16 21 3 45 -11 22 -31 29 -44
15z m33 -24 c0 -5 -7 -9 -15 -9 -15 0 -20 12 -9 23 8 8 24 -1 24 -14z"/>
<path d="M2314 2355 c-7 -18 3 -35 22 -35 8 0 14 -5 14 -11 0 -6 -7 -9 -15 -5
-8 3 -15 1 -15 -4 0 -6 9 -10 20 -10 24 0 38 44 20 65 -16 19 -39 19 -46 0z
m36 -10 c0 -8 -4 -15 -10 -15 -5 0 -10 7 -10 15 0 8 5 15 10 15 6 0 10 -7 10
-15z"/>
<path d="M2402 2347 c-27 -29 -28 -37 -3 -37 11 0 22 -6 24 -12 10 -23 24 10
19 42 -5 36 -12 37 -40 7z m18 -17 c0 -5 -5 -10 -11 -10 -5 0 -7 5 -4 10 3 6
8 10 11 10 2 0 4 -4 4 -10z"/>
<path d="M2692 1637 c-210 -106 -384 -199 -387 -207 -10 -35 -15 -340 -5 -340
6 0 108 52 228 116 220 118 311 167 437 234 137 72 400 213 402 215 5 3 -274
175 -283 174 -5 0 -181 -86 -392 -192z"/>
<path d="M1169 855 c-50 -27 -68 -126 -34 -179 33 -49 112 -58 150 -16 10 11
15 26 12 35 -9 21 -24 19 -30 -5 -7 -27 -51 -36 -82 -16 -25 16 -31 38 -26
101 5 60 61 85 100 46 12 -12 23 -16 32 -10 11 7 8 15 -14 34 -31 28 -69 31
-108 10z"/>
<path d="M1792 825 c3 -37 0 -44 -12 -39 -42 16 -69 15 -88 -2 -41 -40 -34
-119 14 -144 21 -12 29 -11 54 4 26 15 30 15 30 2 0 -9 7 -16 15 -16 13 0 15
20 15 120 0 103 -2 120 -16 120 -13 0 -15 -9 -12 -45z m-25 -53 c6 -4 14 -19
18 -34 15 -59 -28 -105 -65 -68 -47 47 -6 136 47 102z"/>
<path d="M2340 750 c0 -110 2 -121 18 -118 12 2 18 15 20 43 4 41 28 79 44 69
5 -3 22 -30 39 -59 21 -38 36 -53 50 -52 10 1 19 4 19 7 0 3 -18 32 -40 65
-22 33 -40 65 -40 71 0 5 16 25 35 44 40 39 43 47 14 45 -12 -1 -42 -26 -70
-59 -27 -32 -50 -52 -50 -44 -1 7 -2 33 -3 58 -1 34 -5 45 -18 48 -16 3 -18
-8 -18 -118z"/>
<path d="M3182 853 c2 -10 10 -18 18 -18 22 0 18 29 -3 33 -14 3 -18 -1 -15
-15z"/>
<path d="M3298 859 c-10 -5 -18 -21 -18 -34 0 -16 -6 -25 -15 -25 -8 0 -15 -4
-15 -9 0 -5 7 -11 15 -15 11 -4 15 -22 15 -76 0 -63 2 -71 18 -68 14 3 17 15
19 63 2 87 2 85 11 83 4 -2 8 0 10 5 1 4 -1 7 -4 6 -11 -1 -22 23 -17 37 2 6
13 14 24 17 10 3 19 10 19 16 0 14 -39 14 -62 0z"/>
<path d="M3080 826 c-5 -13 -14 -27 -20 -31 -9 -6 -9 -9 0 -15 7 -4 14 -30 15
-57 4 -73 12 -93 41 -93 15 0 24 6 24 15 0 8 -7 15 -15 15 -12 0 -15 13 -15
60 0 47 3 60 15 60 8 0 15 5 15 10 0 6 -7 10 -15 10 -9 0 -15 9 -15 25 0 32
-18 32 -30 1z"/>
<path d="M1371 774 c-42 -54 -10 -144 51 -144 32 0 73 29 59 43 -6 6 -15 5
-25 -6 -19 -18 -53 -12 -66 13 -13 25 -4 30 58 30 54 0 54 0 48 28 -15 62 -88
83 -125 36z m73 0 c9 -3 16 -16 16 -28 0 -18 -6 -21 -37 -20 -42 1 -51 14 -28
38 18 18 25 19 49 10z"/>
<path d="M1544 787 c-3 -8 -4 -45 -2 -83 2 -53 6 -69 18 -69 11 0 16 13 18 45
4 76 10 90 37 90 16 0 25 6 25 15 0 18 -31 20 -49 3 -11 -10 -14 -10 -18 0 -6
16 -22 15 -29 -1z"/>
<path d="M1890 785 c-18 -22 -8 -26 27 -13 25 9 35 9 47 -1 28 -24 18 -34 -44
-46 -32 -6 -50 -24 -50 -51 0 -34 41 -52 76 -34 15 9 28 10 32 5 20 -27 29
-10 29 56 1 49 -3 74 -14 84 -19 20 -87 19 -103 0z m80 -93 c0 -37 -54 -59
-66 -27 -11 27 4 45 36 45 22 0 30 -5 30 -18z"/>
<path d="M2066 784 c-9 -8 -16 -21 -16 -28 0 -23 39 -49 73 -50 26 -1 33 -5
35 -22 2 -28 -35 -39 -66 -18 -27 18 -49 9 -31 -12 6 -7 15 -11 20 -8 5 3 9 0
9 -5 0 -17 53 -13 78 5 16 11 22 24 20 42 -2 23 -11 30 -53 43 -29 9 -50 22
-50 30 0 19 33 24 61 8 28 -15 42 -6 24 16 -16 20 -84 20 -104 -1z"/>
<path d="M2575 777 c-4 -13 -5 -50 -3 -82 2 -48 7 -60 21 -63 15 -3 17 5 17
55 0 65 6 79 34 84 26 5 33 29 9 29 -11 0 -25 -6 -32 -12 -11 -10 -14 -10 -18
0 -7 19 -22 14 -28 -11z"/>
<path d="M2723 785 c-42 -30 -39 -108 6 -142 24 -18 66 -16 84 5 21 23 21 32
2 32 -8 0 -15 -4 -15 -9 0 -15 -30 -21 -51 -11 -10 6 -19 20 -19 30 0 18 7 20
55 20 43 0 55 3 55 16 0 19 -19 56 -34 66 -18 13 -60 9 -83 -7z m65 -14 c14
-8 13 -43 0 -42 -5 1 -19 1 -33 1 -27 0 -33 18 -13 38 14 14 28 15 46 3z"/>
<path d="M2894 778 c-19 -21 -19 -21 6 -14 50 16 75 12 78 -10 2 -17 -3 -22
-33 -27 -46 -8 -65 -23 -65 -53 0 -33 34 -49 71 -33 23 9 33 9 42 0 22 -22 27
-10 27 58 0 82 -13 101 -69 101 -26 0 -44 -7 -57 -22z m72 -117 c-13 -12 -20
-13 -34 -5 -30 20 -26 42 10 52 29 7 33 6 36 -11 2 -11 -3 -27 -12 -36z"/>
<path d="M3182 718 c2 -66 6 -83 18 -83 12 0 15 16 15 80 0 69 -2 80 -18 83
-16 3 -18 -4 -15 -80z"/>
<path d="M2240 651 c0 -12 5 -21 11 -21 7 0 9 -9 6 -21 -5 -17 -3 -18 9 -8 20
16 14 63 -8 67 -13 2 -18 -3 -18 -17z"/>
<path d="M3385 660 c-4 -6 -1 -17 5 -25 7 -8 9 -22 6 -31 -5 -14 -4 -15 9 -4
20 16 20 70 1 70 -8 0 -18 -5 -21 -10z"/>
<path d="M542 373 l3 -118 70 3 c79 4 105 20 105 64 0 20 -7 32 -24 39 -23 11
-23 12 -5 30 51 51 2 99 -102 99 l-50 0 3 -117z m103 78 c3 -1 9 -1 14 -1 15
0 22 -32 10 -46 -6 -8 -29 -14 -51 -14 -43 0 -54 14 -44 54 5 22 9 24 36 16
17 -5 33 -9 35 -9z m33 -127 c3 -32 3 -32 -48 -35 -66 -5 -67 -5 -62 37 l4 35
52 -3 c49 -3 51 -4 54 -34z"/>
<path d="M2264 479 c-8 -14 11 -33 25 -25 6 4 11 11 11 16 0 13 -29 20 -36 9z"/>
<path d="M2492 474 c-26 -18 -28 -41 -6 -72 8 -12 11 -22 6 -22 -18 0 -52 -42
-52 -65 0 -27 43 -65 74 -65 11 0 33 6 48 14 18 9 29 11 36 4 6 -6 18 -8 28
-4 16 6 16 8 0 25 -9 10 -14 25 -10 34 10 26 -7 43 -22 23 -11 -16 -14 -16
-29 8 -16 23 -15 26 6 55 21 29 21 31 5 55 -19 30 -51 33 -84 10z m52 -10 c21
-8 20 -27 -2 -47 -18 -16 -19 -15 -32 9 -12 22 -12 27 0 34 18 12 15 11 34 4z
m-12 -121 c9 -10 20 -27 26 -39 11 -20 9 -21 -31 -20 -36 1 -42 4 -45 24 -7
50 20 69 50 35z"/>
<path d="M2780 376 c0 -111 1 -116 21 -116 18 0 20 5 18 47 -2 30 1 48 9 51
19 6 57 -23 81 -61 19 -32 61 -57 61 -37 0 5 -16 29 -35 54 l-34 45 27 13 c19
9 28 22 30 44 5 47 -26 68 -109 72 l-69 4 0 -116z m135 72 c3 -3 7 -19 9 -35
2 -23 0 -30 -10 -26 -8 3 -27 0 -44 -5 -20 -7 -30 -8 -30 -1 0 6 -4 8 -9 5 -8
-5 -21 60 -14 68 5 4 93 -1 98 -6z"/>
<path d="M3200 370 c0 -96 3 -120 14 -120 18 0 23 21 25 121 2 92 -3 119 -25
119 -11 0 -14 -24 -14 -120z"/>
<path d="M3593 475 c-3 -9 -3 -18 0 -21 9 -9 27 6 27 22 0 19 -19 18 -27 -1z"/>
<path d="M3293 468 c2 -7 10 -13 17 -13 7 0 15 6 18 13 2 7 -5 12 -18 12 -13
0 -20 -5 -17 -12z"/>
<path d="M1803 463 c-7 -3 -13 -12 -13 -22 0 -9 -6 -23 -12 -30 -10 -11 -10
-14 0 -18 8 -3 12 -26 12 -63 0 -49 3 -61 20 -70 13 -7 26 -7 37 -2 14 9 14
11 -5 21 -18 10 -22 21 -22 61 0 38 4 50 15 50 8 0 15 7 15 15 0 8 -6 15 -14
15 -8 0 -16 11 -18 23 -2 14 -8 22 -15 20z"/>
<path d="M793 405 c-57 -40 -26 -154 42 -155 23 0 65 26 65 41 0 14 -19 11
-36 -6 -20 -19 -58 -5 -62 24 -3 19 1 21 53 21 l57 0 -6 28 c-13 55 -69 78
-113 47z m61 -11 c9 -3 16 -12 16 -19 0 -7 6 -16 13 -18 6 -3 -9 -6 -35 -6
-49 -1 -61 12 -36 37 14 14 20 14 42 6z"/>
<path d="M960 345 c0 -41 0 -78 0 -82 0 -5 6 -8 13 -8 7 0 13 17 15 45 4 71
10 90 32 90 20 0 36 17 26 28 -4 3 -16 0 -28 -7 -14 -9 -23 -10 -31 -2 -22 22
-27 10 -27 -64z"/>
<path d="M1085 398 c-4 -19 -2 -117 4 -190 0 -10 8 -18 16 -18 11 0 15 11 15
41 0 35 3 40 18 34 41 -17 52 -16 76 9 18 17 26 36 26 59 0 64 -62 110 -99 75
-11 -10 -14 -10 -18 0 -8 20 -32 14 -38 -10z m103 -10 c7 -7 12 -31 12 -55 0
-54 -28 -75 -60 -43 -29 29 -27 88 3 100 30 12 31 12 45 -2z"/>
<path d="M1290 335 c0 -71 2 -83 15 -79 10 4 15 20 15 51 0 54 14 83 40 83 11
0 20 7 20 15 0 18 -21 20 -38 3 -9 -9 -15 -9 -24 0 -23 23 -28 11 -28 -73z"/>
<path d="M1437 408 c-66 -51 -18 -171 61 -153 17 3 33 13 36 22 9 24 0 27 -26
9 -28 -20 -33 -20 -52 0 -31 31 -20 44 39 44 43 0 55 3 55 16 0 19 -19 56 -34
66 -17 12 -61 9 -79 -4z m68 -22 c24 -17 14 -44 -17 -41 -13 1 -29 3 -35 4
-18 1 -16 16 3 35 19 19 25 20 49 2z"/>
<path d="M1610 402 c-34 -28 -20 -56 38 -73 35 -11 47 -20 47 -34 0 -24 -29
-27 -67 -6 -31 17 -47 9 -28 -13 37 -46 134 -21 128 32 -2 22 -11 30 -50 42
-59 19 -68 28 -44 46 16 11 23 11 47 -3 32 -19 49 -12 29 12 -17 21 -73 19
-100 -3z"/>
<path d="M1910 405 c-18 -21 -4 -32 21 -17 11 7 29 10 40 7 31 -10 19 -38 -19
-46 -18 -4 -41 -14 -51 -23 -39 -35 11 -91 58 -66 17 9 26 9 36 0 8 -7 18 -9
23 -6 12 7 3 137 -11 154 -14 17 -82 15 -97 -3z m78 -93 c6 -41 -60 -53 -71
-12 -4 14 2 22 22 29 34 12 45 9 49 -17z"/>
<path d="M2086 404 c-18 -18 -21 -44 -5 -44 5 0 8 -4 4 -9 -7 -12 61 -35 76
-25 8 4 9 3 5 -4 -7 -11 7 -17 29 -12 6 1 1 -7 -10 -18 -20 -19 -42 -19 -82 1
-29 13 -40 3 -20 -18 44 -43 131 -20 125 33 -2 22 -11 30 -50 42 -58 19 -68
28 -45 45 19 13 57 9 57 -6 0 -5 7 -9 15 -9 21 0 19 17 -4 30 -29 15 -77 12
-95 -6z"/>
<path d="M2267 414 c-4 -4 -7 -40 -7 -81 0 -67 2 -73 20 -73 19 0 21 5 18 77
-3 70 -13 95 -31 77z"/>
<path d="M3037 408 c-22 -18 -36 -59 -30 -91 10 -54 83 -86 117 -51 30 30 16
45 -17 19 -28 -20 -66 -1 -67 33 0 8 18 12 55 12 47 0 55 3 55 19 0 10 -9 30
-21 45 -22 29 -64 35 -92 14z m67 -24 c22 -22 20 -34 -6 -35 -26 -2 -51 1 -56
6 -2 2 1 13 8 24 13 25 33 27 54 5z"/>
<path d="M3297 414 c-4 -4 -7 -40 -7 -80 0 -55 4 -73 15 -78 22 -8 26 10 23
89 -3 63 -13 86 -31 69z"/>
<path d="M3407 408 c-9 -7 -21 -26 -27 -42 -15 -42 14 -100 54 -104 16 -2 33
1 39 7 19 19 28 12 25 -21 -2 -26 -8 -34 -27 -36 -13 -2 -34 2 -47 8 -31 17
-48 10 -31 -14 18 -25 90 -26 117 -1 17 16 20 31 20 117 0 97 -4 110 -28 86
-9 -9 -15 -9 -24 0 -16 16 -50 15 -71 0z m78 -25 c12 -12 15 -26 11 -51 -8
-51 -40 -67 -70 -36 -31 31 -11 104 29 104 7 0 21 -8 30 -17z"/>
<path d="M3590 340 c0 -64 3 -80 15 -80 12 0 15 16 15 80 0 64 -3 80 -15 80
-12 0 -15 -16 -15 -80z"/>
<path d="M3680 347 c0 -69 2 -75 26 -87 22 -13 30 -12 55 2 16 10 29 13 29 8
0 -6 7 -10 15 -10 12 0 15 16 15 80 0 64 -3 80 -15 80 -12 0 -15 -13 -15 -59
0 -64 -13 -85 -52 -79 -21 3 -23 9 -26 71 -2 51 -6 67 -17 67 -12 0 -15 -16
-15 -73z"/>
<path d="M3887 402 c-10 -10 -17 -23 -17 -29 0 -16 29 -37 69 -48 38 -11 53
-38 26 -49 -9 -3 -32 1 -51 10 -43 20 -58 9 -24 -18 31 -25 87 -19 112 13 26
32 8 55 -59 74 -53 16 -56 18 -38 31 22 17 40 18 65 4 12 -6 21 -7 25 -1 3 6
-3 15 -14 20 -30 17 -76 13 -94 -7z"/>
</g>
</svg>
